<!DOCTYPE svg PUBLIC "-//W3C//DTD SVG 1.1//EN" "http://www.w3.org/Graphics/SVG/1.1/DTD/svg11.dtd">
<svg xmlns="http://www.w3.org/2000/svg" viewBox="0 0 180 180">
<path fill="#482c74" d="M65.424 28.54c-3.483 5.943-4.369 15.255-1.995 20.962 2.198 5.282 6.334 11.193 8.382 11.979 1.235.474 1.119.058-.468-1.675-7.299-7.978-7.134-21.194.364-29.021l2.601-2.715-2.404-2.002c-3.293-2.741-3.463-2.676-6.48 2.472m37.728-2.515-2.348 1.954 2.75 3.26c7.214 8.556 7.278 20.601.152 28.747-1.604 1.834-1.295 1.702 1.139-.486 8.035-7.221 10.233-20.044 5.135-29.95-2.958-5.749-3.697-6.13-6.828-3.525m-21.468 6.379c-14.844 5.469-15.666 26.159-1.3 32.683 14.956 6.792 29.585-8.545 22.673-23.771-3.506-7.72-13.405-11.849-21.373-8.912m-3.182 37.171C71.319 73.321 68 79.112 68 87.901c0 3.29.45 6.259 1 6.599.582.36 1-.644 1-2.403 0-5.169 3.908-13.778 8.646-19.049 4.786-5.323 4.757-6.028-.144-3.473m16.996 2.555c4.355 4.82 8.483 13.308 9.248 19.016.72 5.363 2.218 2.965 2.239-3.58.022-7.04-3.187-13.104-8.825-16.679-6.274-3.979-7.051-3.616-2.662 1.243M66.5 73.39c-17.11 11.252-23.762 31.954-16.048 49.942l1.643 3.831 3.466-4.539c1.907-2.497 4.218-4.961 5.137-5.475 1.522-.851 1.431-1.47-1.013-6.917-6.314-14.068-1.679-29.908 11.288-38.579 1.359-.909 2.034-1.63 1.5-1.602-.535.027-3.223 1.53-5.973 3.339m41.032.859c10.077 8.831 13.496 25.998 7.349 36.893l-2.62 4.642 2.637 2.358c1.45 1.297 3.812 3.88 5.248 5.74l2.611 3.382 2.115-5.653c6.848-18.3-.609-39.525-17.047-48.527l-4.325-2.368 4.032 3.533m-31.119 4.309c-5.703 9.731-6.764 18.774-2.663 22.702 7.968 7.631 20.831 7.344 28.176-.63 2.967-3.221 2.021-10.945-2.432-19.855-3.577-7.158-4.075-7.486-5.927-3.904-2.792 5.398-9.235 5.367-12.536-.06l-1.83-3.01-2.788 4.757M71.416 104.5c1.059 6.31 6.065 15.597 11.023 20.451l4.546 4.451 2.758-2.04c4.641-3.434 9.961-11.318 12.163-18.026 2.805-8.545 2.696-8.907-1.656-5.46-8.367 6.626-18.876 6.331-26.628-.748l-2.877-2.628.671 4" fill-rule="evenodd"/>
</svg>